<svg width="134" height="38" viewBox="0 0 134 38" fill="none" xmlns="http://www.w3.org/2000/svg">
<path d="M18.2874 6.98877H14.7509V18.515H18.2874V6.98877Z" fill="white"/>
<path d="M28.3186 25.7129C28.1867 25.6775 25.0602 24.8283 21.886 23.3082C17.1519 21.0405 14.7509 18.4336 14.7509 15.5582H18.2874C18.2874 16.8713 20.2028 18.5725 23.4096 20.1089C26.2942 21.49 29.2056 22.2808 29.2342 22.2884L28.3176 25.7139L28.3186 25.7129Z" fill="white"/>
<path d="M5.28082 25.5261V22.1198C5.30663 22.1122 7.86819 21.3579 10.3647 20.0275C13.1519 18.5429 14.7509 16.9126 14.7509 15.5564H18.2874C18.2874 18.3991 16.1627 20.9659 11.9724 23.1856C9.15852 24.6769 5.39743 25.4907 5.28082 25.5252V25.5261Z" fill="white"/>
<path d="M31.5215 6.98877H27.985V31.6093H31.5215V6.98877Z" fill="white"/>
<path d="M34.5179 11.8634H29.7533V15.4096H34.5179V11.8634Z" fill="white"/>
<path d="M70.8643 24.8083V21.262C75.7619 21.262 79.3184 19.9863 81.4355 17.4695C83.4905 15.0274 83.783 11.8789 83.7524 10.0636H71.5449V6.51733H87.3061C87.3061 6.51733 88.2753 14.8069 84.1643 19.7256C81.3457 23.0984 76.8706 24.8083 70.8643 24.8083Z" fill="white"/>
<path d="M92.7933 6.51733H89.2569V31.6094H92.7933V6.51733Z" fill="white"/>
<path d="M98.0111 6.51733H94.4746V31.6094H98.0111V6.51733Z" fill="white"/>
<path d="M91.0242 9.86609H85.5264V13.4123H91.0242V9.86609Z" fill="white"/>
<path d="M91.0241 16.7419H82.8683V20.2882H91.0241V16.7419Z" fill="white"/>
<path d="M119.951 6.51733H101.234V10.0636H119.951V6.51733Z" fill="white"/>
<path d="M112.361 8.29041H108.824V12.752H112.361V8.29041Z" fill="white"/>
<path d="M100.938 18.0512V14.5548C100.96 14.551 103.189 14.1647 105.356 13.3826C108.188 12.3609 108.824 11.4293 108.824 11.184H112.361C112.361 13.4756 110.392 15.3426 106.508 16.7353C104.051 17.6161 101.039 18.033 100.937 18.0512H100.938Z" fill="white"/>
<path d="M120.248 17.9755C120.146 17.9582 117.134 17.617 114.677 16.7353C110.793 15.3426 108.824 13.4746 108.824 11.184H112.361C112.361 11.4293 112.998 12.3609 115.829 13.3826C117.997 14.1647 120.225 14.551 120.247 14.5548V17.9755H120.248Z" fill="white"/>
<path d="M126.303 9.86609H120.745V13.4123H126.303V9.86609Z" fill="white"/>
<path d="M128.072 6.51733H124.536V19.9557H128.072V6.51733Z" fill="white"/>
<path d="M128.081 31.3246L108.607 31.2288C107.239 31.2288 106.045 30.7515 105.153 29.8496C103.495 28.1733 103.469 25.6296 103.472 25.3449L103.487 23.6149L124.536 23.6571V22.6249H103.629V19.0786H128.072V27.1458L107.466 27.096C107.765 27.5733 108.145 27.6806 108.608 27.6806L128.082 27.7765V31.3227L128.081 31.3246Z" fill="white"/>
<path d="M69.2567 30.0509H51.3152V10.5149C51.3152 8.43989 52.9984 6.75208 55.0677 6.75208H69.2567V30.0518V30.0509ZM54.1827 27.1756H66.3892V9.62645H55.0677C54.5793 9.62645 54.1827 10.0252 54.1827 10.514V27.1756Z" fill="white"/>
<path d="M54.1827 30.0509H36.2412V6.7511H50.4302C52.4995 6.7511 54.1827 8.43892 54.1827 10.5139V30.0509ZM39.1077 27.1755H51.3143V10.5149C51.3143 10.0251 50.9167 9.62739 50.4292 9.62739H39.1077V27.1765V27.1755Z" fill="white"/>
<path d="M54.1827 28.6132H51.3152V30.4074H54.1827V28.6132Z" fill="white"/>
<path d="M134 37.2728H0V0.727295H134V37.2728ZM2.86741 34.3974H131.133V3.60263H2.86741V34.3974Z" fill="white"/>
</svg>
