<svg width="353" height="381" viewBox="0 0 353 381" fill="none" xmlns="http://www.w3.org/2000/svg">
<path d="M0.847961 375.423C14.33 374.295 27.7582 372.671 41.1999 371.182C48.1562 370.416 55.2471 369.423 62.311 369.088C62.2841 368.376 62.2572 367.665 62.2437 366.954C62.1092 361.813 62.1899 356.686 62.311 351.545C62.5263 341.895 63.0915 332.244 62.9973 322.594C62.9435 317.439 62.3245 312.312 61.8805 307.185C61.4903 302.635 61.1001 298.098 60.7099 293.548C58.6109 293.387 56.4984 293.213 54.3994 292.984C48.1966 292.34 41.8188 290.837 36.9212 286.77C34.728 284.945 32.7635 282.072 32.3464 279.213C31.7948 275.415 32.8712 271.912 33.665 268.247C35.4546 260.06 37.123 251.913 39.4777 243.859C42.0207 235.149 44.0389 226.303 45.9765 217.458C46.9318 213.083 47.8871 208.694 48.8963 204.318C49.3941 202.144 49.9054 199.969 50.4436 197.808C50.6858 196.855 50.7935 195.043 51.3047 193.862C49.7036 193.728 48.1024 193.567 46.5147 193.366C40.8636 192.641 35.2797 191.392 29.8572 189.648C25.7938 188.346 21.6092 187.124 18.9048 183.581C12.8365 175.635 15.8639 163.783 19.0393 155.381C19.4833 154.186 20.0753 153.019 20.4655 151.797C20.8692 150.536 20.9096 149.193 21.3401 147.945C21.6496 147.059 22.1743 146.308 22.6049 145.489C23.3853 144.026 23.6948 142.308 24.2464 140.737C25.0537 138.415 25.9956 136.147 26.9778 133.892C28.1754 131.127 29.9245 128.282 30.5973 125.342C31.0682 123.275 32.0908 121.436 33.0057 119.504C34.257 116.873 35.4815 114.242 36.7597 111.638C39.1278 106.779 41.6305 101.974 44.5503 97.4243C47.1202 93.4111 49.9996 89.4918 53.3634 86.0826C55.6104 83.8008 58.2476 81.7607 61.3154 80.8211C62.4725 79.7205 63.4682 78.4186 64.4773 77.1838C65.7152 75.6805 67.0876 74.4054 68.4331 73.0095C71.9046 69.4124 75.3222 64.4059 75.3491 59.225C75.3625 56.7419 74.6629 54.3393 74.1381 51.9368C73.5595 49.2524 73.2097 46.5277 72.7523 43.8164C72.3082 41.1991 71.9046 38.5415 71.9315 35.8839C71.9315 34.7967 72.0256 33.723 72.1871 32.6626C72.2679 32.1257 72.5639 31.401 72.3217 30.8775C71.5413 29.1863 70.2765 30.354 69.5499 31.0654C67.8949 32.7297 66.7916 35.2128 65.7825 37.2933C64.4639 40.0179 63.7373 42.8769 63.0107 45.7894C61.7863 50.7154 59.9295 55.3728 57.6017 59.8961C55.5565 63.869 52.9328 67.6272 49.2461 70.2311C47.026 71.8015 41.6843 74.5799 40.0831 70.6875C39.4777 69.2244 40.2446 67.8554 40.9308 66.5937C42.3301 64.0032 43.5815 61.3859 44.5906 58.621C46.3667 53.7085 47.6988 48.7155 48.3446 43.5211C48.9232 38.9308 49.7305 34.6894 52.4484 30.8506C54.83 27.4951 57.8843 24.3812 61.6248 22.5558C64.733 21.0257 69.0386 20.1935 72.1333 22.2471C73.1693 22.9316 73.9901 24.2604 75.08 22.7437C75.6451 21.9652 76.1833 21.1867 76.7888 20.4351C78.39 18.4486 80.166 16.6232 81.8748 14.7307C84.7139 11.5899 87.4049 8.46257 91.0512 6.20766C94.3881 4.14066 98.1825 2.85213 102.017 2.04681C111.194 0.114024 121.164 0.744863 129.856 4.38225C139.14 8.26124 146.594 16.4353 151.747 24.8778C151.801 24.9718 151.828 25.0523 151.855 25.1462C155.878 31.2667 158.098 38.6489 158.004 45.9908C158.058 46.1116 158.085 46.2458 158.071 46.4069C158.058 46.6753 158.017 46.9303 157.964 47.1853C157.829 50.0443 157.331 52.8763 156.443 55.6279C155.273 59.2652 152.972 62.7818 150.254 65.4528C148.881 66.8085 147.442 68.1104 146.204 69.6003C145.746 70.1506 145.101 70.8485 144.912 71.5733C144.885 71.6941 144.858 71.7881 144.858 71.8686C145.397 72.5263 145.814 73.2645 145.867 73.8685C145.908 74.4725 145.262 74.8349 144.751 74.7275C143.957 74.553 143.23 73.3853 143.055 72.5531C142.975 72.4726 142.88 72.3921 142.8 72.3518C142.235 72.0431 142.288 72.1102 141.804 72.8216C141.4 73.3987 141.172 74.1101 140.943 74.7812C140.472 76.2174 140.189 77.7206 140.001 79.1971C139.853 80.2843 139.947 81.6265 139.342 82.5929C138.292 84.2572 136.139 84.123 134.552 83.4116C133.758 83.0492 133.058 82.7271 132.48 82.3378C132.318 82.66 132.13 82.9821 131.941 83.2908C131.026 84.8612 130.838 87.2637 128.941 88.0422C128.322 88.2972 127.609 88.3107 126.882 88.2033C126.802 88.3375 126.68 88.4583 126.559 88.5388C123.222 90.5924 121.312 94.0822 117.517 95.5318C114.315 96.7532 111.046 95.8673 108.18 94.1896C106.094 92.9681 104.237 91.4246 102.367 89.8945C102.542 91.183 102.811 92.4715 103.228 93.7735C104.789 98.6994 107.52 103.102 109.835 107.692C111.705 111.41 113.373 115.423 115.647 118.967C116.697 117.638 117.8 116.336 118.903 115.101C120.047 113.826 121.245 112.605 122.496 111.45C122.59 109.88 122.778 108.31 122.953 106.739C123.249 103.988 123.895 101.075 126.196 99.2765C127.407 98.337 128.51 98.3101 129.493 98.8739C130.623 96.7263 132.466 95.3304 134.767 96.7398C134.902 96.2566 135.13 95.8136 135.547 95.3976C137.35 93.599 139.705 95.0083 141.347 96.3371C143.257 97.8806 145.356 99.9342 146.93 102.256C150.079 103.719 152.743 106.404 154.802 109.128C156.901 111.907 158.663 115.41 156.497 118.631C156.08 119.262 155.596 119.772 155.071 120.202C158.435 122.215 161.771 124.282 165.081 126.403C169.024 128.939 172.912 131.557 176.734 134.255C180.057 136.59 183.448 138.912 186.112 141.999C188.48 144.737 190.269 147.851 190.229 151.542C190.189 156.213 187.511 159.515 184.86 163.085C182.075 166.83 179.344 170.615 176.653 174.427C175.926 175.447 175.159 176.467 174.487 177.514C173.787 178.615 173.585 178.709 174.85 179.245C177.057 180.172 180.003 180.118 182.371 180.507C190.794 181.863 199.123 183.688 207.532 185.151C212.067 185.943 216.615 186.614 221.189 187.097C223.396 187.326 225.616 187.5 227.836 187.661C230.756 187.889 232.949 186.762 235.425 185.353C237.901 183.93 242.247 180.977 245.193 182.494C248.436 184.171 246.781 188.735 246.27 191.5C245.409 196.077 244.171 200.587 242.462 204.922C241.978 206.143 241.641 207.7 240.363 208.331C239.529 208.747 238.264 208.908 237.443 208.452C236.125 207.714 234.954 205.781 233.891 204.707C232.384 203.19 230.716 201.781 228.684 201.043C226.423 200.224 223.8 200.144 221.405 199.862C218.983 199.58 216.547 199.325 214.112 199.097C205.501 198.291 196.862 197.835 188.224 197.325C183.744 197.07 179.263 196.788 174.783 196.439C170.315 196.09 165.418 195.016 160.978 196.01C158.65 196.533 157.466 197.929 155.851 199.499C154.506 200.815 152.972 201.982 151.33 202.895C148.289 204.586 144.845 205.445 141.373 205.459C141.992 209.23 142.907 212.975 143.809 216.68C145.383 223.149 147.146 229.578 148.962 235.981C150.98 243.094 153.079 250.181 155.205 257.268C155.38 257.563 155.555 257.845 155.744 258.114C156.766 259.55 157.21 261.295 157.775 262.959C158.542 265.16 159.255 267.308 159.753 269.576C160.197 271.63 160.682 274.046 160.937 276.529C161.099 277.106 161.274 277.683 161.435 278.274C161.502 278.502 161.475 278.703 161.395 278.878C163.05 282.77 161.489 286.045 158.677 288.26C158.165 288.931 157.56 289.548 156.847 290.085C154.586 291.79 151.599 291.629 148.774 291.427C146.863 291.495 144.926 291.427 143.002 291.468C139.866 291.521 136.731 291.629 133.596 291.763C132.816 291.951 132.076 292.219 131.47 292.622C131.47 292.676 131.47 292.716 131.47 292.77C131.47 293.119 131.242 293.454 130.919 293.588C130.946 298.071 129.91 302.514 128.995 306.876C127.959 311.816 126.855 316.755 125.752 321.681C123.532 331.694 121.339 341.72 119.751 351.867C119.361 354.323 119.172 356.86 118.54 359.263C118.069 361.075 117.302 362.779 116.831 364.591C115.836 368.323 114.678 374.765 118.742 377.128C120.666 378.242 123.169 378.054 125.308 378.094C127.959 378.134 130.623 378.161 133.273 378.174C138.871 378.215 144.482 378.201 150.079 378.148C171.769 377.96 193.445 377.195 215.108 376.403C219.346 376.242 228.2 377.45 228.63 371.557C228.778 369.423 227.702 367.074 226.975 365.088C226.168 362.9 225.212 360.753 224.472 358.538C223.854 356.686 223.894 354.766 223.019 353.021C222.118 351.196 221.997 348.914 221.526 346.941C220.409 342.27 217.933 337.948 216.224 333.465C214.26 328.298 206.483 315.158 216.13 313.01C220.584 312.017 225.118 312.393 229.626 312.607C232.021 312.728 234.443 312.795 236.838 312.554C238.237 312.42 240.282 312.514 240.861 310.943C241.372 309.561 240.713 307.963 240.282 306.661C237.322 297.749 232.963 288.797 227.419 281.186C224.742 277.509 221.606 274.153 218.189 271.16C216.534 269.71 214.771 268.435 213.251 266.865C212.161 265.737 211.125 264.986 210.641 263.402C208.394 255.966 219.803 258.1 223.544 259.389C225.899 260.208 228.078 261.375 230.083 262.798C229.666 260.798 229.276 258.798 228.872 256.839C227.93 252.221 226.706 247.202 226.8 242.464C226.867 239.376 228.24 236.88 231.711 237.269C234.806 237.618 236.986 240.491 238.91 242.625C241.668 245.685 243.754 249.134 245.207 253C247.844 260.02 250.616 267.066 252.755 274.261C252.863 273.63 252.97 272.999 253.078 272.395C254.087 265.939 255.258 259.483 257.491 253.322C260.667 244.571 261.905 233.377 269.453 227.055C269.776 226.787 270.153 226.719 270.529 226.921C274.176 228.8 274.135 234.826 274.176 238.276C274.256 244.745 273.638 251.201 272.615 257.59C271.565 264.207 270.072 270.744 268.471 277.24C267.704 280.354 266.897 283.468 266.103 286.569C265.686 288.179 265.282 289.803 264.878 291.414C264.851 291.521 264.824 291.642 264.798 291.75C265.322 290.823 265.766 289.911 266.143 288.837C267.139 285.965 268.444 283.186 269.978 280.569C272.911 275.549 276.638 270.811 280.675 266.623C284.59 262.556 289.124 258.865 294.358 256.637C298.301 254.96 303.683 253.671 307.921 255.094C313.815 257.08 305.055 262.999 303.172 264.301C300.588 266.1 297.776 267.684 295.354 269.684C293.888 270.892 292.259 271.737 290.833 273.039C288.532 275.12 286.285 277.254 284.133 279.482C280.042 283.723 276.248 288.367 273.611 293.669C272.373 296.165 271.417 298.796 270.852 301.534C270.449 303.467 269.144 308.97 271.431 309.95C274.714 311.359 278.939 310.983 282.437 310.916C284.792 310.876 287.146 310.796 289.501 310.688C291.533 310.594 293.686 310.165 295.704 310.312C299.525 310.581 302.041 314.581 302.041 318.218C302.041 319.453 301.463 320.782 301.126 321.976C300.682 323.573 300.238 325.171 299.808 326.768C298.893 330.083 297.964 333.398 297.023 336.7C295.26 342.901 293.444 349.102 291.519 355.249C290.631 358.068 289.73 360.887 288.788 363.692C288.263 365.289 287.712 366.886 287.173 368.484C286.837 369.477 286.393 370.551 286.581 371.624C287.187 375.114 292.851 375.409 295.543 375.597C298.92 375.839 302.297 375.665 305.661 375.893C320.811 376.926 336.069 375.584 351.206 374.832C352.35 374.779 352.35 376.55 351.206 376.604C337.617 377.275 324.014 378.309 310.397 377.879C306.845 377.772 303.32 377.557 299.767 377.517C296.431 377.477 292.905 377.436 289.69 376.43C287.335 375.691 285.021 374.242 284.778 371.557C284.617 369.772 285.438 368.041 286.003 366.39C287.146 363.034 288.25 359.652 289.313 356.27C291.264 350.109 293.094 343.908 294.87 337.707C295.731 334.673 296.579 331.653 297.426 328.62C298.301 325.466 299.512 322.245 300.077 319.037C300.454 316.876 299.31 313.56 297.251 312.5C295.475 311.587 293.04 312.245 291.143 312.366C286.824 312.634 282.464 312.822 278.132 312.715C275.562 312.648 270.516 312.755 268.928 310.312C267.892 308.728 268.471 305.695 268.673 303.923C268.982 301.212 269.641 298.568 270.624 296.031C274.62 285.75 282.989 277.509 291.156 270.382C292.246 269.429 293.538 268.865 294.695 267.979C295.906 267.053 297.197 266.207 298.462 265.362C301.153 263.563 303.965 261.845 306.36 259.671C306.818 259.255 308.433 257.98 308.11 257.214C307.639 256.074 303.71 256.396 302.835 256.436C295.798 256.718 289.488 260.798 284.455 265.429C279.437 270.046 274.943 275.616 271.498 281.508C269.641 284.69 268.632 288.099 267.125 291.414C266.654 292.461 265.78 293.306 265.47 294.421C265.268 295.159 265.376 295.736 264.596 296.152C264.582 296.152 264.555 296.165 264.542 296.179C264.367 296.447 264.179 296.689 264.017 296.89C263.761 297.32 263.358 297.4 263.021 297.279C262.672 297.212 262.376 296.93 262.376 296.447C262.376 295.91 262.376 294.904 262.631 294.139C262.699 293.36 262.779 292.595 262.981 291.803C263.344 290.327 263.721 288.837 264.098 287.361C264.824 284.528 265.551 281.683 266.264 278.851C267.731 273.026 269.117 267.187 270.206 261.281C271.31 255.349 272.104 249.363 272.332 243.336C272.453 240.303 272.682 237.028 272.198 234.021C271.929 232.384 271.525 230.008 270.153 228.867C263.371 235.041 262.201 245.631 259.2 253.859C257.142 259.496 255.998 265.415 255.043 271.321C254.652 273.724 254.302 276.126 253.926 278.529C254.141 279.388 254.356 280.247 254.558 281.106C255.365 284.609 256.576 288.085 253.441 290.716C253.199 290.944 252.863 291.011 252.58 290.931C252.284 290.877 252.015 290.689 251.961 290.327C250.885 286.528 251.342 282.367 252.042 278.327C251.84 277.576 251.638 276.824 251.423 276.086C250.131 271.63 248.571 267.268 246.969 262.919C245.395 258.664 244.09 254.141 242.004 250.114C240.215 246.692 237.658 243.47 234.779 240.866C233.434 239.645 230.662 237.9 229.061 239.887C227.836 241.403 228.711 245.027 228.94 246.745C229.572 251.658 230.568 256.53 231.657 261.362C231.913 262.489 232.169 263.603 232.424 264.717C234.712 266.731 236.744 269.066 238.479 271.563C240.471 274.435 242.112 277.536 243.485 280.743C244.87 284.005 245.57 287.562 247.05 290.756C247.494 291.709 248.046 292.81 247.548 293.857C247.01 294.998 245.624 295.092 244.534 294.676C242.973 294.072 242.193 292.635 241.453 291.24C240.35 289.159 239.246 287.079 238.17 284.985C235.977 280.69 233.945 276.301 232.398 271.737C231.711 269.724 231.16 267.643 230.675 265.536C229.706 264.744 228.697 264.006 227.621 263.348C224.62 261.51 221.257 260.342 217.745 260.047C216.426 259.939 213.291 259.483 212.444 260.758C211.3 262.503 213.076 264.14 214.125 265.241C216.924 268.221 220.315 270.583 223.181 273.522C225.953 276.368 228.455 279.468 230.621 282.797C235.29 289.938 239.152 297.83 241.87 305.91C242.408 307.494 242.946 308.997 242.731 310.688C242.489 312.581 242.085 313.466 240.255 313.883C235.977 314.862 231.577 314.567 227.244 314.339C224.997 314.218 222.723 314.111 220.476 314.258C218.283 314.406 214.865 314.54 213.695 316.728C212.538 318.902 213.533 321.587 214.179 323.775C214.892 326.164 216.103 328.311 217.045 330.593C218.714 334.62 220.382 338.687 221.983 342.754C222.764 344.74 223.275 346.7 223.719 348.78C223.921 349.733 224.002 350.874 224.351 351.773C224.594 352.377 224.984 352.874 225.199 353.491C225.858 355.411 225.899 357.424 226.625 359.343C227.379 361.357 228.2 363.343 228.926 365.37C230.029 368.47 231.321 371.906 229.451 374.993C227.675 377.933 223.463 377.973 220.396 378.094C215.39 378.295 210.398 378.456 205.393 378.631C185.197 379.356 164.987 379.973 144.778 380.054C139.759 380.08 134.754 380.054 129.735 380.013C126.156 379.973 121.715 380.59 118.365 379.007C111.987 376.013 114.221 366.658 115.997 361.531C117.491 357.223 117.827 352.632 118.594 348.149C119.388 343.492 120.289 338.861 121.245 334.244C123.169 324.969 125.335 315.762 127.286 306.5C128.268 301.816 129.398 297.078 129.116 292.26C129.116 292.192 129.116 292.125 129.116 292.058C112.351 292.89 95.6394 294.219 78.834 294.273C73.3846 294.286 67.9353 294.125 62.486 293.763C62.9838 299.427 63.4816 305.091 63.9795 310.755C64.7195 319.238 64.8271 327.466 64.5715 335.975C64.2889 345.518 63.8853 355.062 64.0064 364.605C64.0199 366.108 64.0737 367.611 64.1275 369.115C66.24 369.047 68.3524 369.047 70.4514 369.128C73.1021 369.235 76.0219 369.611 78.2554 371.155C79.9104 372.309 79.8565 374 78.1612 375.061C75.968 376.43 72.981 376.765 70.4648 376.993C68.46 377.168 65.3654 377.53 63.5893 376.295C62.5801 375.597 62.6743 374.537 62.5801 373.41C62.5128 372.564 62.459 371.718 62.4187 370.873C55.7853 371.195 49.1115 372.175 42.6396 372.873C28.727 374.403 14.8279 376.107 0.874878 377.275C-0.268799 377.369 -0.255341 375.597 0.874878 375.503L0.847961 375.423ZM253.132 286.569C253.213 286.609 253.28 286.649 253.374 286.689C253.455 286.743 253.536 286.797 253.603 286.864C253.764 285.75 253.495 284.555 253.213 283.294C253.118 284.381 253.078 285.481 253.132 286.555V286.569ZM241.453 287.454C241.937 288.381 242.435 289.307 242.933 290.246C243.162 290.676 243.39 291.24 243.673 291.656C244.036 292.166 245.853 293.615 245.718 292.179C245.664 291.575 245.072 290.864 244.844 290.287C244.561 289.602 244.413 288.877 244.198 288.166C243.242 284.81 242.004 281.535 240.444 278.421C238.533 274.596 236.138 270.892 233.151 267.791C233.783 270.207 234.51 272.596 235.452 274.945C237.188 279.24 239.3 283.374 241.453 287.468V287.454ZM48.2908 215.163C46.7569 222.196 45.2096 229.216 43.42 236.195C41.5767 243.363 39.3162 250.383 37.7285 257.617C36.9481 261.174 36.235 264.758 35.468 268.315C34.6473 272.113 33.2479 276.099 34.2974 279.992C35.1317 283.106 38.0918 285.763 40.7828 287.334C43.4873 288.904 46.4878 289.857 49.5287 290.488C53.1212 291.226 56.8348 291.642 60.5619 291.897C60.3466 289.334 60.1313 286.757 59.9026 284.193C58.584 268.865 57.1712 253.55 55.3413 238.276C54.3994 230.437 53.471 222.693 52.9328 214.814C52.6637 210.801 52.4215 206.774 52.2735 202.748C52.2197 201.365 52.1255 199.929 52.0986 198.493C52.0179 198.828 51.9371 199.164 51.8429 199.499C51.4124 201.258 50.9953 203.016 50.5916 204.774C49.7978 208.224 49.0308 211.687 48.2773 215.15L48.2908 215.163ZM54.3725 87.5725C47.6315 94.5385 42.8549 103.196 38.6165 111.826C36.4233 116.309 33.5709 121.034 32.3195 125.839C31.8351 127.678 30.8798 129.436 30.0994 131.167C28.9423 133.745 27.7851 136.335 26.7625 138.979C25.9283 141.154 25.4305 143.502 24.5155 145.623C24.1657 146.428 23.6275 147.14 23.2642 147.945C22.6453 149.328 22.6318 150.844 22.1743 152.267C20.6943 156.844 18.6895 161.099 17.8149 165.877C16.8999 170.897 16.9941 176.467 19.416 181.084C21.7572 185.54 26.6953 186.816 31.1489 188.211C41.6843 191.5 52.287 192.332 63.2664 192.386C74.1381 192.439 84.9964 192.09 95.8682 191.956C102.179 191.889 108.462 191.956 114.746 192.158C110.413 188.05 106.282 183.514 103.47 178.44C103.43 178.36 103.39 178.279 103.349 178.199C102.206 178.548 101.075 178.843 99.8374 178.762C95.2627 178.48 90.8629 177.084 86.5976 175.487C81.9556 173.756 77.5019 172.038 72.6446 170.964C67.6393 169.863 62.486 169.38 57.4537 168.32C54.6954 167.743 51.9371 167.219 49.1788 166.709C47.6315 169.81 44.7655 171.742 41.1595 170.883C38.6569 170.293 34.6473 167.971 36.5579 164.857C38.2532 162.079 42.5992 163.716 45.075 164.119C46.1245 164.293 47.174 164.481 48.2101 164.669C48.5733 163.716 48.8559 162.736 49.1519 161.85C49.9996 159.287 50.6992 156.669 51.668 154.133C53.4037 149.569 55.7853 145.22 58.2072 140.979C60.5215 136.926 62.7147 132.375 65.7556 128.845C66.4552 128.027 66.7647 127.087 67.4913 126.295C68.2179 125.503 68.8772 124.846 69.3615 123.866C70.3303 121.933 71.8104 120.39 72.9541 118.51C75.6047 114.135 78.2689 109.853 79.1838 104.739C80.1257 99.545 79.0896 94.3238 76.1698 89.9213C73.7076 86.2168 70.4514 82.4184 65.6883 82.0426C64.4639 81.9486 63.3067 82.0828 62.1899 82.3781C62.0285 82.4855 61.8401 82.5392 61.6786 82.5258C58.88 83.425 56.4312 85.3981 54.386 87.5322L54.3725 87.5725ZM141.723 191.715C138.508 191.446 135.319 190.923 132.089 190.842C131.511 190.829 131.228 190.386 131.228 189.956C131.228 189.513 131.511 189.07 132.089 189.07C132.735 189.044 133.421 188.976 134.081 189.044C134.215 189.057 134.35 189.111 134.458 189.178C136.153 189.285 137.848 189.406 139.53 189.272C140.943 189.151 142.235 188.829 143.553 188.305C143.553 188.305 143.567 188.305 143.58 188.305C141.118 187.688 138.642 187.151 136.126 186.762C133.193 186.292 130.246 186.292 127.434 185.285C126.99 185.178 126.788 184.789 126.802 184.413C126.775 184.037 126.963 183.675 127.434 183.581C129.56 182.977 131.672 182.789 133.825 182.319C134.283 182.225 134.969 182.225 135.238 181.809C135.601 181.232 133.933 181.098 133.516 180.977C132.076 180.574 130.582 180.359 129.102 180.185C124.191 179.648 119.549 179.313 114.773 177.97C112.122 177.232 109.539 176.776 106.794 177.232C106.296 177.313 105.798 177.433 105.327 177.581C105.825 178.534 106.39 179.46 107.036 180.346C108.664 182.588 110.588 184.681 112.579 186.601C114.948 188.883 118.459 190.305 121.473 191.54C122.361 191.902 123.263 192.251 124.178 192.574C125.712 192.668 127.232 192.762 128.766 192.869C131.565 193.07 134.404 193.285 136.826 194.735C137.714 194.694 138.602 194.627 139.476 194.493C140.741 194.305 142.544 194.117 143.661 193.446C146.016 192.037 143.042 191.822 141.737 191.715H141.723ZM112.566 145.502C112.674 145.449 112.781 145.395 112.875 145.341C113.387 144.777 113.912 144.227 114.423 143.663C115.096 142.241 115.122 140.402 115.19 138.925C115.311 136.281 116.011 133.892 116.737 131.355C117.316 129.342 117.827 127.208 118.782 125.315C117.571 124.376 116.508 123.222 115.58 121.987C113.414 124.98 111.543 128.174 110.279 131.61C109.229 134.469 108.57 137.516 108.785 140.576C108.92 142.361 109.35 144.133 110.104 145.757C110.373 146.334 110.696 146.871 110.965 147.422C111.342 147.006 111.718 146.589 112.109 146.173C112.109 145.905 112.23 145.636 112.566 145.489V145.502ZM130.286 122.792C133.22 120.886 136.086 118.94 138.373 116.39C138.373 115.893 138.615 115.477 138.978 115.141C138.938 115.141 138.898 115.141 138.871 115.128C137.606 114.833 137.391 113.611 137.027 112.551C136.234 110.229 135.642 107.826 135.251 105.397C135.238 105.276 135.211 105.155 135.198 105.035C134.646 105.29 134.094 105.545 133.556 105.827C134.579 109.034 135.117 112.377 135.117 113.705C135.117 114.739 135.198 116.054 134.162 116.658C133.206 117.222 131.901 116.658 131.107 116.054C129.049 114.444 128.901 111.37 128.605 108.981C128.605 108.914 128.591 108.846 128.578 108.793C127.071 109.84 125.644 110.994 124.285 112.215C124.178 114.202 124.218 116.148 124.81 118.202C125.483 120.537 126.64 122.591 127.03 124.913C128.161 124.322 129.21 123.49 130.273 122.805L130.286 122.792ZM146.608 105.518C146.312 104.874 145.962 104.256 145.585 103.666C144.266 103.142 142.867 102.901 141.4 103.062C141.669 103.397 141.912 103.733 142.154 104.068C143.553 106.001 144.912 108.565 144.226 111.021C144.118 111.424 143.903 111.866 143.607 112.309C145.114 112.202 146.661 111.799 147.307 110.444C148.02 108.927 147.24 106.914 146.594 105.518H146.608ZM136.583 102.605C137.095 102.417 137.593 102.243 138.104 102.082C137.646 101.612 137.229 101.209 136.906 100.914C136.731 100.753 136.557 100.578 136.368 100.377C136.409 101.129 136.503 101.907 136.597 102.605H136.583ZM136.853 104.337C136.893 104.578 136.933 104.78 136.947 104.927C137.162 106.269 137.431 107.585 137.767 108.9C137.969 109.706 138.198 110.497 138.454 111.289C138.871 112.591 139.019 113.437 140.566 112.793C140.795 112.699 140.997 112.591 141.185 112.484C141.212 112.47 141.225 112.457 141.252 112.444C144.428 110.497 141.858 106.39 139.369 103.505C138.521 103.746 137.673 104.028 136.839 104.364L136.853 104.337ZM141.024 115.96C140.835 116.229 140.66 116.484 140.459 116.739C140.916 118.631 148.343 120.148 149.191 120.161C149.85 120.175 150.51 120.121 151.155 119.987C150.819 119.786 150.483 119.584 150.146 119.396C148.801 118.604 147.428 117.866 146.016 117.222C145.154 116.833 144.266 116.47 143.338 116.256C143.23 116.229 141.777 115.92 141.024 115.96ZM130.152 102.592C130.004 103.625 130.004 104.686 130.058 105.759C130.502 105.491 130.946 105.236 131.403 104.981C131.04 104.162 130.623 103.357 130.152 102.592ZM131.995 106.659C131.39 106.994 130.811 107.343 130.233 107.706C130.3 108.269 130.367 108.833 130.434 109.383C130.609 110.806 130.717 114.162 132.359 114.806C133.462 115.235 133.233 114.672 133.341 113.719C133.408 113.021 133.314 112.229 133.233 111.531C133.058 109.853 132.641 108.202 132.062 106.618C132.036 106.618 132.022 106.645 131.995 106.659ZM124.057 121.168C123.061 122.349 122.038 123.544 121.177 124.832C121.81 125.181 122.482 125.45 123.182 125.597C123.949 125.758 124.676 125.718 125.362 125.557C125.227 124.067 124.635 122.604 124.043 121.168H124.057ZM122.092 127.127C121.46 126.926 120.868 126.658 120.303 126.335C120.101 126.738 119.913 127.141 119.764 127.557C118.809 130.174 117.935 133.006 117.343 135.731C117.02 137.248 117.047 139.154 116.872 140.992C119.038 138.563 121.07 136.067 122.738 133.221C123.801 131.409 124.972 129.463 125.308 127.369C124.312 127.557 123.249 127.517 122.092 127.127ZM138.4 202.909C137.915 201.016 137.323 199.177 137.175 197.231C136.893 196.963 136.583 196.708 136.247 196.493C131.982 196.56 127.69 195.674 123.64 194.265C122.254 194.171 120.868 194.104 119.468 194.037C119.778 194.318 120.074 194.614 120.383 194.896C124.851 199.097 130.488 202.184 136.557 203.284C137.216 203.405 137.889 203.499 138.548 203.566C138.494 203.352 138.454 203.137 138.4 202.922V202.909ZM118.554 192.292C117.988 192.064 117.423 191.809 116.858 191.554C117.1 191.782 117.343 192.023 117.598 192.251C117.921 192.251 118.244 192.278 118.567 192.292H118.554ZM47.4297 166.4C45.8285 166.105 44.2273 165.796 42.6262 165.488C41.7247 165.313 40.7963 165.085 39.8813 165.112C38.1994 165.152 37.4056 166.427 38.5627 167.743C40.137 169.541 43.6488 169.837 45.519 168.575C46.3398 168.025 46.9453 167.26 47.4297 166.4ZM64.2082 80.3111C64.2082 80.3111 64.3024 80.3111 64.3428 80.3111C64.3024 80.3111 64.2755 80.2977 64.2351 80.2843C64.2351 80.2843 64.2082 80.3111 64.2082 80.3245V80.3111ZM74.4207 68.0701C75.1069 67.5333 75.6585 66.9024 75.968 65.8421C76.1295 65.2649 76.2237 64.6744 76.264 64.0704C75.7931 65.4528 75.1607 66.795 74.4207 68.0701ZM156.093 42.7561C155.663 36.3269 153.335 30.2466 149.608 24.9986C149.5 24.851 149.46 24.7033 149.447 24.5691C144.764 17.2406 138.185 10.1269 130.246 6.48952C122.294 2.85213 112.983 1.9797 104.399 3.41586C100.255 4.10039 96.0969 5.30838 92.464 7.44249C88.71 9.65714 86.0056 12.8113 83.1262 16.0058C81.5923 17.7104 79.9777 19.3613 78.511 21.133C77.4615 22.4081 76.4389 24.757 74.8378 25.4818C73.5865 26.0455 72.8464 25.3073 71.9987 24.502C69.9536 22.5692 67.0204 22.5424 64.437 23.3343C59.916 24.7302 56.1755 28.4749 53.6056 32.3137C50.8069 36.4879 50.4839 41.1722 49.7978 46.0042C49.125 50.8496 47.6315 55.6547 45.8823 60.2182C45.1019 62.2449 44.2408 64.2314 43.2182 66.1374C42.4916 67.5064 40.6752 70.5264 43.42 70.8217C44.9001 70.9827 46.5551 69.8956 47.766 69.1171C56.4984 63.4395 59.5124 51.6281 62.0823 42.2729C63.226 38.112 65.0963 33.7364 67.8546 30.3674C69.3481 28.5286 72.537 26.918 73.8556 29.8843C74.6629 31.6962 73.7345 34.0451 73.7076 35.8974C73.6672 39.2797 74.34 42.6084 74.9185 45.9237C75.4029 48.6618 75.8604 51.3865 76.4524 54.1112C76.6542 55.0373 76.8291 55.9902 76.9637 56.9298C77.8786 56.0037 79.4395 56.0439 80.6773 56.4734C81.8479 56.8761 82.6148 57.4935 83.92 57.5606C85.5077 57.6412 87.1761 57.6412 88.7639 57.5338C90.4054 57.413 91.9527 56.9835 93.4866 56.4063C94.4419 56.0439 96.0162 55.7487 96.7562 55.0239C97.7384 54.0709 96.5813 52.7555 96.2853 51.6818C96.07 50.9033 96.07 50.0979 96.1911 49.306C96.5409 47.1317 97.7519 45.0915 98.7476 43.1587C100.429 39.9106 102.663 36.0316 106.942 36.3C110.628 36.5282 112.808 40.7025 112.27 44.0312C112.082 45.1989 111.665 46.2995 111.194 47.3733C110.911 48.0309 110.588 48.6618 110.238 49.2926C109.956 49.8161 109.323 50.5006 109.068 51.0912C109.135 51.0912 109.229 51.0912 109.377 51.0643C109.687 50.9972 110.104 51.0643 110.427 51.0643C111.368 51.0241 112.297 50.8899 113.225 50.7422C117.598 50.0308 121.567 49.4537 126.008 50.3395C129.398 51.0106 132.856 51.7086 136.072 52.9971C139.086 54.2051 142.692 56.205 146.056 55.3997C148.155 54.9031 150.214 53.3998 151.882 52.1113C153.362 50.9704 155.461 49.3195 156.12 47.3733C156.214 45.8297 156.214 44.2862 156.12 42.7561H156.093ZM109 51.1046C108.973 51.0107 108.92 51.0778 109 51.1046V51.1046ZM108.085 108.229C106 104.095 103.605 100.109 102.004 95.7465C101.277 93.76 100.712 91.7065 100.456 89.5992C100.403 89.1831 100.389 88.7536 100.376 88.3375C99.7971 87.8946 99.2185 87.4517 98.613 87.0356C96.7158 85.7202 93.4866 84.3512 94.8725 81.3715C96.2314 78.432 99.4069 80.7138 100.793 82.3378C101.721 83.4385 102.111 84.5525 102.111 85.9752C102.111 86.4987 102.125 87.0087 102.152 87.5053C105.085 89.8542 108.018 92.6729 111.624 93.9077C115.889 95.3573 119.199 92.9816 122.052 90.069C122.644 89.465 124.178 88.4449 124.81 87.5725C124.487 87.4248 124.191 87.2638 123.936 87.1161C122.106 86.0289 121.15 84.3243 121.177 82.1902C121.177 82.1768 121.177 82.1499 121.177 82.1365C121.177 82.1097 121.177 82.0828 121.177 82.056C121.218 81.801 121.366 81.5996 121.554 81.4788C121.877 81.2506 122.334 81.2104 122.657 81.5728C122.819 81.7473 122.953 81.8681 123.061 81.9889C124.46 83.4116 126.008 84.5659 126.667 86.3645C127.394 86.539 128.12 86.5524 128.631 86.19C129.385 85.6397 129.452 84.1364 129.883 83.2908C130.165 82.7405 130.892 81.8412 131.201 81.0091C130.932 80.4722 130.798 79.8145 130.838 78.9555C130.865 78.2307 131.82 77.7341 132.359 78.3246C133.018 79.0629 133.179 79.8145 133.085 80.5796C133.543 81.1164 134.296 81.3849 135.157 81.7473C136.624 82.3781 137.673 82.3647 138.05 80.5527C138.588 77.9757 138.629 75.3986 139.732 72.9424C140.337 71.6002 141.589 69.6271 143.298 70.513C143.338 70.5264 143.378 70.5532 143.405 70.5801C143.688 70.0298 144.064 69.5063 144.414 69.05C146.648 66.1239 150.025 64.0435 151.788 60.7819C153.254 58.0707 154.708 55.7352 155.38 52.6616C155.488 52.1784 155.569 51.6952 155.663 51.212C154.358 52.581 152.743 53.7488 151.357 54.6615C149.931 55.6144 148.33 56.6211 146.648 57.0774C144.226 57.7217 141.616 57.0506 139.328 56.2184C133.408 54.0575 127.34 51.6012 120.922 51.5073C117.181 51.4536 113.602 52.8763 109.862 52.8629C108.947 52.8629 107.601 52.8226 107.238 51.7891C107.076 51.3328 107.211 50.9838 107.386 50.5677C107.924 49.2792 108.906 48.1249 109.498 46.823C110.696 44.2056 111.274 40.3535 108.328 38.5549C106.377 37.3604 104.022 38.5549 102.636 40.0448C100.847 42.0044 99.6356 45.011 98.613 47.4269C98.1959 48.4202 97.7519 49.5476 97.873 50.6483C97.9941 51.7354 98.7341 52.6347 98.8956 53.7219C99.1378 55.3191 98.2632 56.3124 96.8773 56.9566C94.6572 58.0036 92.168 58.876 89.7192 59.1847C87.2165 59.4934 83.7316 59.8961 81.4173 58.782C80.7984 58.4868 79.8296 57.7217 79.1031 57.9096C77.9055 58.2049 78.0536 59.7216 78.067 60.6075C78.0939 62.0839 78.1343 63.5872 77.9325 65.0502C77.7441 66.3655 77.3539 67.6943 76.5062 68.7412C75.6451 69.8016 74.3534 70.2177 73.2904 71.0364C70.2227 73.3987 67.3163 76.6066 65.3115 79.9219C65.1904 80.1232 65.029 80.244 64.8406 80.2977C73.1155 80.3111 79.5202 89.4113 80.9195 96.8069C81.821 101.585 81.0406 106.457 79.1838 110.913C78.2554 113.155 77.031 115.222 75.7797 117.289C75.0665 118.47 74.3399 119.665 73.6268 120.846C72.9944 121.893 72.2006 122.671 71.5143 123.651C70.9492 124.443 70.6801 125.383 70.0747 126.161C69.4961 126.926 68.7695 127.49 68.2582 128.309C66.9396 130.376 65.4326 132.268 64.1544 134.389C61.1808 139.355 58.2072 144.335 55.6642 149.529C53.2154 154.522 51.9641 159.864 49.9323 164.991C53.9823 165.77 58.0054 166.669 62.0688 167.447C67.5989 168.521 73.3443 168.803 78.6994 170.628C83.8258 172.387 88.7773 174.695 94.0517 176.024C96.8773 176.736 99.7298 177.353 102.555 176.521C100.08 170.951 100.093 164.991 102.676 159.26C104.399 155.448 106.915 152.093 109.66 148.925C109.391 148.012 108.799 147.167 108.435 146.308C106.901 142.831 106.7 139.06 107.399 135.355C108.435 129.919 111.18 124.926 114.517 120.443C111.987 116.631 110.171 112.283 108.112 108.216L108.085 108.229ZM100.308 86.1363C100.214 84.9686 99.9047 83.868 98.8956 82.9418C98.4785 82.566 97.2944 81.452 96.7024 81.8815C95.5856 82.6734 97.0926 84.0022 97.6846 84.3914C98.5727 84.9686 99.4473 85.5323 100.308 86.1363ZM105.219 158.132C105.677 157.354 106.148 156.576 106.632 155.797C106.134 156.562 105.664 157.341 105.219 158.132ZM119.697 116.859C118.661 118.041 117.652 119.262 116.683 120.524C116.791 120.685 116.912 120.832 117.033 120.993C117.787 121.973 118.675 122.98 119.684 123.812C120.747 122.255 122.079 120.819 123.263 119.383C123.29 119.356 123.317 119.329 123.344 119.302C123.222 118.967 123.115 118.618 123.021 118.282C122.63 116.859 122.469 115.41 122.429 113.974C121.487 114.9 120.585 115.866 119.711 116.873L119.697 116.859ZM126.627 101.29C124.77 103.33 124.703 106.484 124.514 109.075C124.501 109.289 124.487 109.518 124.46 109.732C125.712 108.699 127.017 107.719 128.376 106.82C128.201 104.793 128.187 102.686 128.739 100.753C128.093 100.256 127.474 100.364 126.627 101.29ZM130.825 100.136C131.659 101.169 132.372 102.605 132.977 104.162C133.623 103.84 134.283 103.531 134.955 103.249C134.807 102.041 134.713 100.82 134.659 99.5987C134.659 99.3034 134.632 99.0215 134.619 98.7531C134.35 98.5517 134.081 98.3773 133.825 98.2565C132.359 97.5854 131.403 98.8202 130.838 100.136H130.825ZM138.09 96.431C137.108 96.2029 136.637 96.9142 136.449 98.0149C137.754 99.0618 139.005 100.27 140.136 101.545C141.36 101.303 142.598 101.223 143.836 101.384C142.356 99.6792 140.311 96.9545 138.077 96.431H138.09ZM155.421 113.759C154.371 110.605 151.532 107.719 148.976 105.679C148.841 105.572 148.707 105.478 148.572 105.37C149.016 106.498 149.299 107.665 149.339 108.833C149.406 110.739 148.559 112.377 146.85 113.262C145.867 113.772 144.724 113.974 143.62 114.054C142.921 114.108 142.625 114.081 142.315 114.282C146.204 114.618 149.917 117.182 153.16 119.101C153.214 119.128 153.254 119.155 153.308 119.182C155.138 118.161 156.268 116.323 155.421 113.746V113.759ZM153.537 199.204C155.259 197.728 156.484 195.875 158.623 194.936C161.179 193.808 164.193 193.795 166.925 193.996C179.196 194.896 191.467 195.661 203.752 196.506C210.345 196.963 216.924 197.553 223.477 198.359C225.885 198.654 228.294 198.842 230.514 199.942C232.842 201.097 234.671 202.976 236.434 204.855C237.066 205.539 237.847 206.774 238.668 206.949C240.161 207.257 241.063 203.647 241.453 202.546C242.61 199.325 243.525 196.01 244.225 192.654C244.561 191.057 244.844 189.446 245.086 187.822C245.261 186.668 245.839 185.017 244.534 184.158C243.606 183.554 242.462 184.051 241.56 184.359C238.466 185.406 235.923 187.46 232.922 188.681C230.097 189.835 227.419 189.446 224.446 189.191C221.203 188.909 217.974 188.534 214.758 188.091C208.972 187.285 203.227 186.185 197.495 185.071C191.507 183.903 185.533 182.749 179.505 181.836C177.312 181.5 174.123 181.863 172.643 179.903C171.257 178.078 173.101 176.454 174.191 174.897C178.012 169.447 182.062 164.172 185.923 158.75C187.969 155.878 189.274 151.985 188.117 148.469C187.134 145.502 184.793 142.912 182.519 140.845C177.729 136.469 171.93 132.966 166.521 129.423C162.202 126.591 157.802 123.866 153.362 121.222C151.707 121.92 149.783 122.014 147.818 121.785C145.235 121.477 141.037 120.322 139.234 118.175C136.987 120.51 134.242 122.336 131.524 124.094C130.071 125.034 128.685 126.054 127.219 126.725C127.219 126.846 127.219 126.966 127.205 127.087C126.976 129.866 125.335 132.429 123.909 134.765C122.509 137.046 120.922 139.113 119.159 141.127C118.15 142.268 117.114 143.395 116.078 144.522C115.647 145.435 115.001 146.214 114.019 146.751C113.198 147.636 112.405 148.536 111.611 149.435C111.705 151.609 110.171 153.502 109.068 155.274C107.426 157.931 105.677 160.589 104.493 163.488C102.757 167.729 102.986 171.984 104.614 175.917C106.538 175.42 108.476 175.098 110.521 175.246C112.929 175.42 115.23 176.239 117.544 176.856C120.572 177.662 123.653 177.903 126.775 178.158C129.21 178.36 131.672 178.574 134.04 179.219C135.278 179.554 137.364 180.051 137.606 181.608C137.808 182.977 136.382 183.447 135.319 183.755C134.229 184.064 133.125 184.265 132.022 184.44C133.569 184.655 135.13 184.775 136.664 185.017C139.745 185.5 142.8 186.185 145.814 187.003C146.163 187.097 146.5 187.473 146.46 187.862C146.298 190.05 145.41 189.889 143.89 190.104C144.186 190.184 144.482 190.265 144.778 190.386C146.756 191.191 148.007 193.54 145.558 194.587C143.419 195.5 141.199 196.05 138.952 196.305C138.965 196.359 138.978 196.412 138.978 196.466C140.297 198.05 140.714 199.983 140.956 202.17C141.01 202.667 141.077 203.164 141.145 203.66C145.666 203.633 150.025 202.264 153.618 199.191L153.537 199.204ZM70.8954 292.327C86.019 292.743 101.143 291.857 116.226 290.931C121.971 290.582 127.703 290.246 133.448 290.005C135.09 289.75 136.826 289.575 138.454 289.508C142.221 289.347 146.069 289.401 149.85 289.602C151.438 289.454 152.985 289.172 154.492 288.609C155.434 288.26 156.349 287.79 157.183 287.199C158.462 285.495 158.811 283.334 159.054 281.253C159.242 279.737 159.242 278.274 159.148 276.838C157.372 270.637 155.515 264.462 153.645 258.288C153.47 258.06 153.308 257.818 153.187 257.55C151.519 254.168 150.779 249.993 149.769 246.356C149.245 244.477 148.787 242.611 148.061 240.799C147.28 238.84 146.177 236.974 145.693 234.907C144.818 231.135 144.199 227.149 142.921 223.471C142.154 221.27 141.239 219.109 140.445 216.921C139.692 214.854 139.517 213.15 139.476 210.989C139.449 209.23 139.248 207.244 138.925 205.378C131.847 204.747 125.241 201.526 119.926 196.855C118.836 195.902 117.733 194.922 116.643 193.916C105.219 193.486 93.7961 193.728 82.3727 193.943C73.1424 194.117 63.7104 194.573 54.4263 194.063C54.3994 194.292 54.2649 194.52 53.9823 194.667C54.386 194.453 54.1438 194.426 54.0899 194.922C54.0496 195.312 54.0092 195.701 53.9958 196.09C53.9285 197.446 53.942 198.815 53.9688 200.171C54.0361 203.66 54.2245 207.15 54.4263 210.64C54.7627 216.21 55.0453 221.807 55.718 227.35C58.3149 248.879 60.36 270.422 62.2841 292.005C65.1635 292.166 68.0564 292.246 70.882 292.327H70.8954ZM64.1544 370.765C64.2082 371.732 64.0602 374.309 64.585 374.765C65.1904 375.302 66.6974 375.222 67.4509 375.248C68.9444 375.289 70.4514 375.181 71.9315 374.967C72.7926 374.846 77.7172 374.242 77.7575 372.967C77.7979 371.745 72.7253 370.967 71.6086 370.873C69.1463 370.685 66.6571 370.645 64.1544 370.725C64.1544 370.739 64.1544 370.752 64.1544 370.765Z" fill="white"/>
</svg>
