<svg width="39" height="27" viewBox="0 0 39 27" fill="none" xmlns="http://www.w3.org/2000/svg">
<path d="M38.1868 4.21531C37.7371 2.55583 36.4162 1.24937 34.7381 0.805434C31.6961 0 19.5 0 19.5 0C19.5 0 7.30389 0 4.26186 0.805434C2.58594 1.24937 1.26285 2.55583 0.815369 4.21531C0 7.22354 0 13.5 0 13.5C0 13.5 0 19.7765 0.815369 22.7847C1.26285 24.4442 2.58594 25.7506 4.26401 26.1946C7.30605 27 19.5022 27 19.5022 27C19.5022 27 31.6983 27 34.7381 26.1946C36.4162 25.7506 37.7371 24.4442 38.1868 22.7847C39.0022 19.7765 39.0022 13.5 39.0022 13.5C39.0022 13.5 39.0022 7.22354 38.1868 4.21531Z" fill="#ED2F2A"/>
<path d="M15.5114 19.1972L25.7045 13.5L15.5114 7.80273V19.1972Z" fill="white"/>
</svg>
