<svg width="134" height="39" viewBox="0 0 134 39" fill="none" xmlns="http://www.w3.org/2000/svg">
<path d="M57.5525 18.7097C55.9549 17.8128 54.6806 16.7945 53.3932 15.7948C51.6293 14.4233 51.62 14.4346 49.7646 15.6883C49.0975 16.1405 48.4566 16.6319 47.7092 16.9682C46.0276 17.7325 44.7197 17.4634 43.8564 16.1349C42.7764 14.4869 42.8979 13.2724 44.417 11.998C45.5012 11.1128 46.634 10.2888 47.8101 9.52976C49.4656 8.43296 51.0183 7.18106 52.7617 6.21318C53.0867 6.03153 53.4238 5.87233 53.7706 5.73672C54.8301 5.32378 55.8596 5.27707 56.6762 6.21879C57.5805 7.26328 58.1709 8.42548 57.3525 9.76893C56.9377 10.4621 57.0928 10.89 57.6945 11.3329C58.2438 11.7383 58.7221 12.2353 59.2547 12.6632C59.7012 13.022 60.0749 13.0892 60.2431 12.3624C60.5533 11.0264 61.4352 10.2697 62.7805 10.1295C65.9103 9.80256 69.012 9.68485 71.6671 11.8392C72.2071 12.2783 72.351 11.9252 72.45 11.4655C72.6611 10.4603 72.8704 9.45689 73.6907 8.72257C74.6455 7.86867 75.8525 7.73788 76.9269 8.45164C77.3137 8.70762 77.5846 8.7151 77.8985 8.38437C78.7319 7.50618 79.7371 7.43705 80.8171 7.80888C80.9873 7.88235 81.1708 7.92025 81.3562 7.92025C81.5416 7.92025 81.725 7.88235 81.8952 7.80888C84.0496 6.81671 86.3534 6.78308 88.5508 7.33054C90.0269 7.70424 91.4283 8.60299 92.5811 9.67177C93.4369 10.464 93.8031 11.5571 93.3734 12.738C93.0856 13.5283 93.3304 13.8964 94.132 14.031C94.4945 14.0926 94.8345 14.2776 95.1877 14.4047C95.8398 14.6195 95.9837 14.3355 95.8099 13.7563C95.2494 11.8878 94.657 10.0193 94.1283 8.15081C93.7863 6.93255 93.4313 5.70682 93.7004 4.40261C94.0087 2.90782 95.2213 2.3753 96.4284 2.04271C97.5682 1.7288 98.4165 2.44817 99.0443 3.40484C100.091 4.97437 100.307 6.82792 100.859 8.56562C101.937 11.9663 102.856 15.4174 104.276 18.7041C104.535 19.3366 104.754 19.985 104.93 20.6454C105.408 22.2972 104.721 23.8219 103.168 24.6104C101.911 25.2494 100.593 24.8514 99.4852 23.5192C98.5846 22.4224 98.1175 21.0976 97.6074 19.8065C97.4392 19.3805 97.2337 19.1077 96.8394 19.586C95.8566 20.7781 94.5617 20.864 93.1847 20.6267C92.5386 20.534 91.9028 20.3795 91.2863 20.1652C90.6286 19.9111 90.3072 20.1279 90.0624 20.7258C89.7541 21.4732 89.485 22.2486 89.0572 22.9231C87.1569 25.9127 85.0231 24.9785 83.4293 22.882C82.8594 22.1346 83.1845 21.2004 83.3788 20.3521C83.4891 19.9966 83.6201 19.6478 83.7712 19.3076C83.9132 18.9171 84.3149 18.4742 83.9281 18.1174C83.5414 17.7605 83.0387 18.0015 82.5866 18.1062C82.041 18.2332 82.1138 18.6798 82.0895 19.0759C81.9438 21.4302 81.8111 23.7845 81.6411 26.1369C81.5776 27.0376 81.387 27.912 80.8526 28.6874C79.6829 30.3878 77.7546 30.6419 76.215 29.248C76.0983 29.126 75.9517 29.0366 75.7898 28.9887C75.6279 28.9409 75.4562 28.9362 75.292 28.9752C72.3248 29.5675 70.5815 28.0634 70.7216 25.0009C70.7571 24.1974 70.9421 23.4033 71.0449 22.6017C71.0822 22.314 71.3532 21.9366 71.0094 21.7553C70.6656 21.5741 70.4974 22.0038 70.3124 22.2224C69.0923 23.6612 67.6181 24.7898 66.0149 25.7595C64.4547 26.6938 62.5769 26.6321 61.6277 24.9336C61.48 24.6683 61.2446 24.4646 60.9401 24.6683C59.6601 25.5222 58.2588 25.2999 56.8705 25.1466C52.1451 24.6197 47.4066 24.2124 42.7036 23.4949C42.0571 23.3959 41.4143 23.2763 40.9098 22.7942C40.5155 22.4205 40.239 22.7419 39.9531 22.9811C36.8776 25.5969 32.6903 25.7651 29.568 23.3548C28.0321 22.1701 27.2866 20.5333 27.1745 18.605C27.1147 17.568 27.096 17.7287 26.0534 17.8446C24.7043 17.9959 24.1195 18.6144 23.4674 19.7915C22.748 21.0883 21.1766 21.7441 19.6949 22.1309C18.9475 22.3289 18.2487 21.9123 17.804 21.2228C17.6844 21.0359 17.5742 20.8491 17.4602 20.6623C17.2547 20.3297 17.0174 20.0475 16.5689 20.1316C16.1485 20.2101 16.0887 20.5744 15.9878 20.8958C15.3712 22.8521 14.2707 24.4796 12.6002 25.6679C8.06166 28.8948 2.35715 26.5181 0.473708 21.6432C-0.9314 17.9884 0.978201 13.9488 3.72115 12.1251C5.45325 10.9741 7.51419 9.99502 9.84608 10.4173C10.8551 10.6041 11.1802 10.0847 10.7467 9.1598C10.1488 7.88175 10.4122 6.93816 11.6305 6.20384C12.348 5.77222 13.1253 5.43029 13.839 5.00053C14.6593 4.51286 15.4123 4.4867 16.1336 5.16683C16.5652 5.57603 16.752 5.48821 16.881 4.89216C17.178 3.58421 17.7442 3.13204 19.1232 2.97322C19.3073 2.95247 19.4852 2.89418 19.6459 2.80194C19.8066 2.7097 19.9466 2.58548 20.0574 2.43696C20.745 1.62043 21.6101 1.00195 22.4864 0.413378C23.4767 -0.253674 24.5418 -0.102326 25.3378 0.787077C26.0272 1.55503 26.8587 2.15855 27.6323 2.82747C28.3629 3.45902 29.2784 3.31141 29.8371 2.49862C30.4537 1.60361 31.2235 1.14209 32.354 1.2897C34.3981 1.55316 36.4198 0.985138 38.4695 1.10285C39.9344 1.17759 40.7977 1.94181 40.7996 3.39363C40.7996 6.59249 40.7996 9.79135 40.7678 12.9883C40.7359 13.6407 40.8901 14.2887 41.2125 14.8568C41.5997 15.4557 41.8751 16.1198 42.0253 16.8169C42.1206 17.3363 42.4158 17.4877 42.9371 17.5232C47.2141 17.824 51.4724 18.3154 55.7288 18.8068C56.2445 18.8722 56.7714 18.9825 57.5525 18.7097ZM9.34532 12.3811C7.36845 12.2708 5.91103 13.2518 4.57318 14.0496C2.33099 15.3912 1.5593 18.7209 2.48421 21.191C3.75478 24.5711 7.9645 26.1444 11.04 24.2684C12.7833 23.2034 13.7288 21.5591 14.3323 19.6832C14.4781 19.2254 14.6294 18.8087 15.0797 18.5621C15.7262 18.1884 16.3665 17.8072 17.0005 17.4185C17.5144 17.099 17.8526 17.2186 18.1216 17.7549C18.4243 18.364 18.785 18.9432 19.0989 19.5468C19.2857 19.9205 19.5585 20.0886 19.9229 19.8551C20.5582 19.4477 21.5746 19.3188 21.7035 18.5228C21.8231 17.7754 21.0384 17.256 20.4946 16.7515C20.3582 16.6263 20.1938 16.531 20.0499 16.4114C18.9438 15.4921 17.9946 14.3878 17.8488 12.9528C17.662 11.1946 16.739 9.82685 15.8944 8.39559C14.8256 6.58128 14.7172 6.5738 12.987 7.79954C12.6133 8.0686 12.5031 8.32645 12.7591 8.7207C13.0636 9.1897 13.3476 9.67177 13.6559 10.137C13.9381 10.563 13.8858 10.9237 13.4242 11.1348C12.0546 11.7495 10.8924 13.0967 9.34532 12.3811ZM38.6246 9.11496H38.7087V7.05961C38.7087 6.37761 38.7087 5.69561 38.7087 5.00427C38.6956 2.99937 38.6956 3.01245 36.7001 3.13577C36.1601 3.16941 35.9078 3.35252 35.9247 3.91681C35.9489 4.75389 35.906 5.59845 35.9247 6.42993C35.9452 7.0484 35.82 7.46508 35.0726 7.43331C34.3589 7.40342 34.2972 6.97927 34.3551 6.41498C34.3981 5.98336 34.3962 5.548 34.3981 5.10704C34.4093 3.08906 34.626 3.46837 32.6772 3.34318C31.8383 3.28712 31.6365 3.57674 31.629 4.3858C31.6047 7.33054 31.6888 10.2772 31.5655 13.2238C31.5692 13.527 31.5038 13.8271 31.3743 14.1013C31.2448 14.3755 31.0546 14.6166 30.8181 14.8064C29.0243 16.3685 28.7291 19.1151 30.1136 20.9575C31.4982 22.7998 34.484 23.4575 36.9075 22.4336C40.0951 21.0864 41.0182 17.7212 38.9404 15.04C38.7196 14.7798 38.6037 14.4467 38.6153 14.1057C38.6433 12.4633 38.6321 10.7891 38.6321 9.11496H38.6246ZM65.0507 11.8635C64.3706 11.9084 63.683 11.9046 63.0122 12.0093C62.7429 12.0312 62.4928 12.1573 62.3148 12.3607C62.1369 12.5641 62.0453 12.8287 62.0593 13.0986C62.0593 13.6853 62.433 13.973 62.9524 14.1468C63.7278 14.4065 64.4958 14.2216 65.26 14.115C66.1577 13.9946 67.0712 14.1239 67.9002 14.4887C68.287 14.655 68.7989 14.8438 68.7373 15.3651C68.6644 15.963 68.0852 15.8303 67.6816 15.8621C65.97 16.0004 64.2884 16.2657 62.6908 16.929C62.0537 17.1925 61.4558 17.568 61.7472 18.3808C62.02 19.1282 62.6946 19.1974 63.3822 19.0254C64.5276 18.7414 65.6599 18.407 66.809 18.1417C67.1976 18.052 67.7563 17.6558 67.9861 18.1174C68.1842 18.5154 67.6125 18.8405 67.2948 19.1039C66.0112 20.182 64.6957 21.2209 63.3971 22.2804C62.9692 22.6298 62.5974 23.0278 62.9487 23.6257C63.3 24.2236 63.8138 24.5095 64.5164 24.3002C64.7547 24.2302 64.9841 24.133 65.2002 24.0106C67.3714 22.7606 69.167 21.0901 70.3591 18.8965C70.8674 17.9623 71.4204 17.6409 72.4481 17.6185C73.3487 17.5979 73.5468 17.9044 73.444 18.6873C73.2198 20.4081 72.9993 22.1328 72.8069 23.8592C72.7097 24.7188 72.62 25.5895 72.8872 26.4434C72.9567 26.668 73.0889 26.8681 73.2684 27.02C73.4478 27.172 73.6669 27.2695 73.8999 27.301C74.3913 27.4 74.7258 27.1235 75.0005 26.7554C75.4508 26.15 75.5405 25.4475 75.5367 24.7244C75.5237 22.4541 75.7778 20.2045 75.9964 17.9511C76.2057 15.7967 76.4243 13.6404 76.798 11.4954C76.9848 10.4117 76.4803 9.86422 75.5274 9.9427C74.8342 9.99875 74.5632 10.5032 74.4605 11.0638C74.2736 12.1288 74.1279 13.207 74.0158 14.2851C73.9429 14.9783 73.6963 15.4062 72.9208 15.3501C72.6416 15.3532 72.363 15.3776 72.0875 15.423C71.626 15.466 71.3289 15.3445 71.2448 14.8083C71.058 13.5694 70.2134 12.8762 69.0979 12.4652C67.79 11.9812 66.4241 11.9214 65.0507 11.8635ZM20.5563 5.01735C18.9008 5.00427 18.9008 5.00427 18.9344 6.65415C18.9363 6.68526 18.9363 6.71646 18.9344 6.74757C18.8802 7.42584 19.168 7.73227 19.8687 7.63137C20.7058 7.50992 20.7824 7.87614 20.4292 8.51517C20.3059 8.73005 20.2069 8.95987 20.1041 9.18596C19.3268 10.8919 19.7603 13.1098 21.0757 14.4476C23.1871 16.5833 26.3337 16.2451 28.6842 14.6065C31.1787 12.8669 31.444 9.48305 29.3195 7.30812C29.1253 7.13088 28.9775 6.90879 28.8889 6.66126C28.8003 6.41373 28.7737 6.14827 28.8113 5.88807C28.873 5.39292 28.6842 5.08648 28.133 5.17991C27.2959 5.32191 26.7111 4.9015 26.158 4.35964C25.6722 3.88317 25.164 3.42539 24.6632 2.96574C23.6729 2.067 23.6711 2.06886 22.6266 2.89287C21.6512 3.66456 21.6494 3.66643 22.4061 4.57452C22.5275 4.71839 22.6976 4.85105 22.5687 5.05098C22.4397 5.25091 22.2379 5.17056 22.0567 5.15375L20.5563 5.01735ZM85.3351 11.3571C85.4196 11.3475 85.5048 11.3475 85.5892 11.3571C85.9629 11.4132 86.5964 11.1703 86.673 11.5739C86.7608 12.0279 86.1124 12.1344 85.7387 12.3045C84.8269 12.7025 83.9113 13.093 83.1228 13.7115C82.4857 14.2103 82.2633 14.9577 82.6351 15.6154C83.0686 16.3853 83.7805 15.9891 84.3504 15.6584C85.4603 15.0381 86.5515 14.3822 87.6521 13.7432C87.8389 13.6386 88.0258 13.4032 88.2276 13.5564C88.4761 13.7432 88.2799 14.0141 88.1902 14.2346C88.1195 14.3726 88.0415 14.5067 87.9566 14.6364C86.9156 16.6468 86.0093 18.7242 85.2436 20.8547C84.9745 21.589 84.9091 22.2785 85.7873 22.6522C86.5141 22.9624 87.1831 22.5812 87.581 21.6544C88.0463 20.5744 88.5657 19.5094 88.9357 18.3958C89.2253 17.5157 89.6588 17.512 90.4006 17.7978C91.6395 18.2962 92.9377 18.6322 94.2628 18.7975C95.1073 18.889 95.5128 18.3453 95.6754 17.6166C95.8454 16.8505 95.4044 16.46 94.7168 16.2788C93.577 15.9779 92.4466 15.6136 91.2881 15.4043C90.395 15.2436 90.3632 14.8232 90.7033 14.1804C91.0228 13.5732 91.3386 12.9641 91.4638 12.2877C91.6805 11.1124 90.9369 10.3295 89.7597 10.5219C89.33 10.5929 89.0553 10.6303 88.9563 10.0978C88.8367 9.4625 88.3602 9.19343 87.7548 9.10748C86.3852 8.91129 85.0306 9.07946 83.6759 9.27004C83.3975 9.30741 83.1471 9.39523 83.0481 9.72969C82.7192 10.8284 83.2349 11.4917 84.3803 11.402C84.6587 11.3852 84.939 11.3777 85.3351 11.3571ZM103.159 21.8207C103.156 21.302 103.048 20.7892 102.843 20.3128C102.183 18.5733 101.455 16.8561 100.883 15.0811C99.8589 11.9233 98.9359 8.72818 97.9549 5.56482C97.8281 5.184 97.6529 4.82104 97.4336 4.48483C97.1851 4.09431 96.8095 3.86075 96.3237 3.98781C95.8379 4.11487 95.6623 4.50538 95.6249 4.97437C95.5662 5.69057 95.6404 6.41144 95.8435 7.10072C96.9534 10.8807 98.0428 14.6663 99.1937 18.4331C99.6198 19.8196 100.064 21.2191 101.062 22.357C101.436 22.7755 101.795 23.0203 102.352 22.8035C102.908 22.5868 103.17 22.1664 103.159 21.8226V21.8207ZM55.8279 8.40867C55.8279 7.55663 55.0337 7.08577 54.1686 7.56411C51.663 8.9524 49.4171 10.7405 47.0571 12.34C46.5199 12.7082 46.0022 13.1042 45.5063 13.5265C45.0037 13.9506 44.9644 14.4775 45.3082 15.0213C45.652 15.565 46.1771 15.5631 46.704 15.3576C47.0174 15.2225 47.3165 15.0566 47.5971 14.8624C48.778 14.115 49.9514 13.3546 51.1286 12.6053C51.5826 12.3138 52.0161 12.2316 52.4889 12.6259C53.6529 13.6031 54.8319 14.5672 56.039 15.5015C56.6255 15.9617 57.245 16.3783 57.8925 16.7478C58.5988 17.1476 59.1594 16.716 59.6209 16.2433C59.9255 15.935 59.8339 15.5631 59.4938 15.2698C57.999 14.0141 56.5341 12.7062 55.0244 11.4655C54.064 10.6751 54.0285 10.6228 55.002 9.78388C55.4112 9.44194 55.8204 9.10935 55.8279 8.40867ZM76.968 25.6642C76.9824 26.1954 77.0538 26.7234 77.181 27.2394C77.3342 27.7551 77.5641 28.153 78.19 28.1474C78.7748 28.1474 79.199 27.9438 79.4232 27.3589C79.6781 26.6252 79.8095 25.8543 79.8118 25.0775C79.9352 22.101 80.122 19.1263 80.4471 16.1648C80.6471 14.3449 80.9124 12.5324 81.0469 10.7088C81.1235 9.69793 80.406 9.25509 79.4475 9.58769C78.8309 9.79696 78.7692 10.3631 78.7001 10.8751C78.4584 12.5642 78.2392 14.2564 78.0424 15.9518C77.6687 19.1824 77.3249 22.4224 76.968 25.6623V25.6642ZM58.4026 23.4687C59.1949 23.3267 60.0675 23.4837 60.2823 22.4915C60.4281 21.8282 59.8339 21.3087 58.7502 21.0658L58.5633 21.0303C56.0315 20.4829 53.438 20.5184 50.8819 20.1914C48.4193 19.8756 45.9435 19.6551 43.4715 19.4085C42.5914 19.3207 42.1019 19.7037 41.9487 20.5464C41.7955 21.3891 42.498 21.4807 43.0287 21.6675C43.3874 21.7707 43.7565 21.8334 44.1292 21.8543C45.7044 22.0206 47.2814 22.1608 48.8546 22.3439C52.0666 22.697 55.271 23.0913 58.4026 23.4687ZM59.3462 18.6574C59.1594 18.6966 58.8959 18.6966 58.9165 18.9881C58.9352 19.2366 59.1631 19.3132 59.3743 19.3487C59.6228 19.3917 59.7984 19.2945 59.7853 19.0198C59.7722 18.7452 59.6078 18.6611 59.3462 18.6574Z" fill="white"/>
<path d="M131.413 10.1953C130.314 11.3743 129.741 12.7645 129.135 14.1659C128.201 16.3184 126.983 18.2766 124.963 19.6387C123.668 20.5094 122.194 20.6925 120.72 20.8924C120.075 20.9784 119.412 20.9392 118.765 20.9728C117.097 21.0606 115.42 21.1185 113.881 22.0509C115.734 19.7415 116.368 16.8191 118.089 14.5059C119.707 12.331 121.938 11.2099 124.587 10.9763C126.859 10.7858 129.182 11.0885 131.413 10.1953Z" fill="white"/>
<path d="M114.553 1.71094C114.282 4.15119 115.235 6.32986 115.96 8.50665C117.081 11.8699 116.407 14.8932 114.686 17.8491C113.815 19.3439 112.545 20.5883 112.012 22.2961C111.85 22.8193 111.483 22.582 111.265 22.2438C108.768 18.2247 107.442 14.0505 109.469 9.39045C110.71 6.54099 112.69 4.1979 114.553 1.71094Z" fill="white"/>
<path d="M133.999 26.0701C133.46 26.4703 132.834 26.7379 132.172 26.8511C129.754 27.4117 127.348 28.0451 124.902 28.4375C120.569 29.1307 116.622 28.3646 113.53 24.9303C112.882 24.2109 112.949 23.9344 113.846 23.6635C114.743 23.3925 115.668 23.0525 116.583 22.7629C120.292 21.5838 123.87 21.6418 127.376 23.5962C129.375 24.708 131.333 26.0383 133.999 26.0701Z" fill="white"/>
<path d="M74.3833 35.0496C74.3833 34.3676 74.3945 33.6856 74.3833 33.0055C74.3702 32.4449 74.615 32.2301 75.1681 32.2357C76.4106 32.2506 77.6532 32.2357 78.8939 32.2188C79.4189 32.2188 79.7384 32.3907 79.7253 32.9569C79.7123 33.5231 79.5011 33.822 78.8789 33.7903C78.2287 33.7566 77.571 33.7903 76.9245 33.8033C76.7694 33.8033 76.6031 33.8799 76.59 34.0593C76.5769 34.2387 76.7507 34.3284 76.8983 34.3396C77.3916 34.3788 77.8886 34.3956 78.3819 34.4106C78.8359 34.4218 79.2993 34.4255 79.3161 35.0496C79.3161 35.7167 78.849 35.7559 78.3501 35.7522C77.9465 35.7522 77.5429 35.7522 77.1393 35.7522C76.8721 35.7634 76.6199 35.8475 76.6704 36.1838C76.7152 36.4753 76.9656 36.4342 77.1879 36.4286C77.7485 36.4099 78.309 36.3893 78.8696 36.4024C79.2433 36.4024 79.602 36.4977 79.8244 36.8714C80.1738 37.4637 80.3849 37.1461 80.5437 36.7331C81.0183 35.5242 81.5284 34.3246 81.9432 33.0933C82.1619 32.4468 82.5374 32.2263 83.1746 32.2114C83.8117 32.1964 84.3984 32.1777 84.6899 32.942C85.2617 34.4368 85.8746 35.9315 86.4949 37.4114C86.6817 37.8617 86.4482 37.985 86.1006 38.0243C85.8095 38.0759 85.5111 38.0695 85.2225 38.0054C84.9339 37.9412 84.6608 37.8206 84.419 37.6506C83.6137 37.0582 82.8756 37.105 82.0852 37.7571C81.9623 37.8768 81.8125 37.9654 81.6484 38.0154C81.4842 38.0655 81.3105 38.0755 81.1417 38.0448C79.4021 37.63 77.6681 38.1588 75.9248 38.0317C74.43 37.9234 74.3945 37.9832 74.4132 36.5369C74.4132 36.0399 74.4132 35.5448 74.4132 35.0421L74.3833 35.0496ZM83.3222 34.5974C82.9485 34.7376 82.9578 35.0571 82.9578 35.3635C82.9578 35.7092 83.0643 35.9988 83.4829 35.9558C83.8043 35.9241 83.8734 35.6587 83.8229 35.3953C83.7613 35.0889 83.765 34.7077 83.3222 34.5974Z" fill="white"/>
<path d="M40.922 34.8787C40.922 34.2005 40.9538 33.7128 40.922 33.2307C40.8678 32.5525 41.0528 32.1638 41.8245 32.1844C42.4915 32.2012 42.9456 32.2871 42.9119 33.1522C42.8708 34.3238 42.9755 35.5009 43.0054 36.6762C43.0166 37.1508 43.2258 37.7581 42.5794 37.9487C41.9329 38.1393 41.2415 38.2402 40.6903 37.6105C40.2961 37.1583 40.0681 36.6146 39.7411 36.1269C39.5879 35.8989 39.3824 35.6074 39.0909 35.6971C38.7994 35.7868 38.9956 36.1306 38.9526 36.3586C38.9314 36.5121 38.9251 36.6673 38.9339 36.822C38.9339 37.8851 38.3734 38.2906 37.3121 38.029C37.1731 38.0126 37.0462 37.9423 36.9585 37.8333C36.8708 37.7243 36.8294 37.5853 36.8431 37.446C36.8431 35.9301 36.8381 34.4141 36.8281 32.8981C36.8281 32.6085 36.8562 32.2778 37.2018 32.2535C37.8651 32.2105 38.5826 32.0162 39.0965 32.6795C39.5113 33.2176 39.7598 33.8754 40.2848 34.3331C40.4381 34.4751 40.6006 34.6115 40.922 34.8787Z" fill="white"/>
<path d="M67.6925 35.0336C67.6925 34.3217 67.7093 33.6098 67.6925 32.8998C67.6757 32.4121 67.9036 32.2327 68.3614 32.2383C69.4825 32.2495 70.5943 32.2066 71.7079 32.2701C73.283 32.3616 73.8884 33.408 73.2307 34.8187C73.057 35.1924 72.9112 35.4652 73.3036 35.8707C73.696 36.2761 73.7203 36.9918 73.6605 37.5523C73.5895 38.2194 72.8944 37.9895 72.4441 38.0493C71.8835 38.1259 71.5659 37.8625 71.5453 37.2739C71.5248 36.6853 71.5248 36.0669 70.6541 36.0444C69.9982 36.0258 69.6171 36.1977 69.7796 36.9394C69.9422 37.6812 69.6357 38.0344 68.8659 38.0605C68.1578 38.0811 67.6327 37.9914 67.6944 37.0833C67.743 36.4051 67.7037 35.7231 67.7037 35.0429L67.6925 35.0336ZM70.5999 33.7088C70.2355 33.7537 69.7516 33.7088 69.7535 34.2077C69.7553 34.7066 70.2262 34.7141 70.5943 34.686C70.9624 34.658 71.45 34.7514 71.4818 34.2544C71.5192 33.6658 70.9586 33.7948 70.5999 33.7088Z" fill="white"/>
<path d="M53.5287 35.1448C53.5287 34.4628 53.5493 33.7808 53.5287 33.1007C53.4895 32.0207 54.2985 32.2729 54.8983 32.2169C55.4981 32.1608 55.8326 32.4224 55.7578 33.0895C55.7317 33.3137 55.6065 33.65 55.9447 33.7191C56.2137 33.7771 56.3726 33.4968 56.5052 33.2969C57.1872 32.3047 58.1588 32.0823 59.2781 32.2281C59.4294 32.2468 59.5995 32.2169 59.6817 32.385C59.7206 32.4713 59.7267 32.5689 59.6989 32.6593C59.671 32.7498 59.6111 32.827 59.5303 32.8764C59.1249 33.2128 58.6988 33.5248 58.2934 33.863C57.8879 34.2012 57.6936 34.5768 58.157 35.1018C58.7493 35.7726 59.2426 36.5331 59.79 37.2469C60.1469 37.7102 60.0666 37.9513 59.4687 38.0391C58.2242 38.2259 57.787 38.0242 57.1144 36.9442C57.0538 36.8353 56.9817 36.7332 56.8995 36.6396C56.6528 36.3911 56.5351 35.8698 56.083 36.0099C55.5747 36.1706 55.7186 36.677 55.769 37.0581C55.883 37.9251 55.3524 38.0335 54.6928 38.0522C54.0332 38.0709 53.5138 37.9214 53.5362 37.0955C53.5549 36.4453 53.5362 35.7876 53.5362 35.1448H53.5287Z" fill="white"/>
<path d="M63.8746 38.0469C61.7482 38.06 60.246 36.8604 60.4085 35.0573C60.558 33.4074 61.539 32.0677 63.6896 32.036C65.7804 32.0004 66.9912 33.157 67.0959 35.0629C67.1986 36.9426 65.943 38.0338 63.8746 38.0469ZM62.5984 35.2105C62.703 35.7823 62.6507 36.5596 63.6018 36.6343C64.338 36.6922 65.033 35.8701 65.02 35.0069C65.0087 34.209 64.5229 33.6466 63.8297 33.6279C63.058 33.6055 62.6096 34.1511 62.5984 35.2105Z" fill="white"/>
<path d="M30.6906 35.1287C30.6906 34.4467 30.7336 33.7628 30.6775 33.0845C30.629 32.5016 30.8943 32.2699 31.4081 32.2605C32.6787 32.2381 33.9511 32.2418 35.2236 32.2344C35.7169 32.2344 35.9803 32.4735 35.971 32.9724C35.9616 33.4713 35.7206 33.7871 35.1694 33.7796C34.6182 33.7721 34.0483 33.7684 33.4878 33.7796C33.2561 33.7796 32.8992 33.7273 32.8973 34.058C32.8973 34.4317 33.271 34.4149 33.5382 34.413C33.8054 34.4112 34.0988 34.3589 34.3697 34.3383C34.9564 34.2935 35.5095 34.4299 35.5095 35.1063C35.5095 35.7826 34.9489 35.8275 34.4145 35.7826C34.0408 35.7509 33.6671 35.7004 33.3046 35.7023C33.0879 35.7023 32.845 35.792 32.8674 36.076C32.8861 36.3021 33.1066 36.3451 33.2916 36.3563C33.9418 36.3955 34.5995 36.431 35.2423 36.446C35.829 36.4609 36.0868 36.7636 36.07 37.326C36.0532 37.8884 35.6963 38.0547 35.1993 38.051C33.9586 38.051 32.7179 38.0361 31.4773 38.051C30.8719 38.051 30.657 37.7483 30.6738 37.1784C30.6944 36.4964 30.6738 35.8144 30.6738 35.1343L30.6906 35.1287Z" fill="white"/>
<path d="M17.9848 35.1077C17.9848 34.4257 18.009 33.7437 17.9848 33.0636C17.9586 32.475 18.1847 32.2022 18.7882 32.2153C20.0289 32.2415 21.2696 32.2358 22.5084 32.2676C22.8821 32.277 23.3044 32.2919 23.2558 32.8506C23.2147 33.342 23.1082 33.7848 22.4635 33.7755C21.8189 33.7661 21.2229 33.7755 20.595 33.7848C20.4082 33.7848 20.098 33.7437 20.1055 34.0576C20.1055 34.3192 20.3708 34.3996 20.5857 34.4014C21.0192 34.4014 21.4508 34.3641 21.8843 34.3342C22.4056 34.3005 22.7513 34.5117 22.7494 35.0554C22.7475 35.5991 22.3757 35.8028 21.8824 35.8028C21.419 35.7897 20.9482 35.7281 20.4941 35.7225C20.4462 35.718 20.3978 35.7237 20.3522 35.7392C20.3065 35.7547 20.2647 35.7797 20.2294 35.8125C20.1942 35.8453 20.1662 35.8852 20.1474 35.9296C20.1286 35.974 20.1194 36.0218 20.1204 36.07C20.1204 36.3185 20.326 36.3596 20.511 36.3652C21.1313 36.3839 21.7516 36.3858 22.3794 36.3951C22.9662 36.4045 23.3137 36.6418 23.2969 37.2901C23.2801 37.9385 22.9232 38.0655 22.3813 38.0599C21.2042 38.0487 20.0251 38.0599 18.848 38.0599C18.2445 38.0599 17.9324 37.817 17.9698 37.1593C18.0072 36.5016 17.9848 35.7879 17.9848 35.1077Z" fill="white"/>
<path d="M26.8875 35.5842C27.4742 34.8368 27.4481 33.9549 27.7433 33.1926C28.1077 32.2583 28.5019 32.0136 29.4997 32.2378C30.0042 32.3499 30.2097 32.5928 29.9052 33.0917C29.1578 34.3193 28.8214 35.7076 28.3618 37.0585C28.1282 37.7405 27.7209 37.9927 27.08 38.0488C26.4391 38.1048 25.8729 38.0357 25.6076 37.2678C25.1125 35.8346 24.5501 34.4258 24.0194 33.0039C23.8195 32.4695 23.9428 32.1817 24.5799 32.1911C25.701 32.2116 25.9514 32.4097 26.1887 33.542C26.3363 34.224 26.4279 34.9265 26.8875 35.5842Z" fill="white"/>
<path d="M46.5976 32.2244C47.2497 32.2244 47.9056 32.245 48.5558 32.2244C49.1313 32.2001 49.4321 32.3944 49.4209 33.0148C49.4116 33.6034 49.2341 34.0368 48.5652 33.9117C47.5823 33.7248 47.474 34.2349 47.5319 35.0159C47.5861 35.7633 47.5319 36.5107 47.5618 37.2581C47.5935 38.0691 47.0218 38.0448 46.4911 38.0541C45.9605 38.0634 45.3831 38.0541 45.3869 37.2749C45.3869 36.4379 45.3869 35.5933 45.4111 34.7618C45.4224 34.2162 45.286 33.8276 44.6264 33.9191C43.9668 34.0107 43.5931 33.7995 43.6099 33.0839C43.6267 32.3272 44.0752 32.1758 44.731 32.2225C45.3495 32.2655 45.9717 32.2319 46.5995 32.2319L46.5976 32.2244Z" fill="white"/>
<path d="M8.3015 22.3163C6.70393 22.2527 5.68561 21.2475 4.93821 19.9283C4.316 18.8315 4.45614 17.632 5.3773 16.8528C6.4629 15.9372 7.73161 15.1039 9.21706 15.0329C10.5157 14.9712 11.9451 16.6734 11.9862 18.0879C12.0329 20.018 10.0803 22.2995 8.3015 22.3163ZM9.93269 18.2056C9.9084 17.361 9.17035 16.9425 8.42482 17.361C7.9932 17.6021 7.64939 17.972 7.1748 18.1607C6.5993 18.3887 6.54511 18.8334 6.88705 19.2818C7.27943 19.8013 7.72413 20.3394 8.47527 20.2161C9.07692 20.1264 9.95138 18.8446 9.93269 18.1981V18.2056Z" fill="white"/>
<path d="M15.0674 13.1328C15.3589 13.1328 16.1885 14.2352 16.1885 14.6108C16.1885 15.0181 15.1347 15.8178 14.5666 15.8459C14.2621 15.8608 13.4268 14.8556 13.4026 14.4464C13.3839 14.0857 14.5928 13.1309 15.0674 13.1328Z" fill="white"/>
<path d="M34.2367 20.4713C33.1063 20.4545 32.2711 19.8248 31.9702 18.7616C31.7199 17.8834 32.1571 16.8726 33.0502 16.2952C33.1882 16.194 33.3475 16.1258 33.5159 16.0956C33.6843 16.0655 33.8574 16.0743 34.0218 16.1214C34.3786 16.229 34.7573 16.2419 35.1205 16.1588C35.9987 15.972 36.7106 16.1943 37.146 17.0463C37.3551 17.4305 37.4308 17.8733 37.3611 18.3051C37.2914 18.737 37.0804 19.1335 36.7611 19.4324C36.2005 19.993 35.0234 20.4825 34.2367 20.4713Z" fill="white"/>
<path d="M35.9278 11.6843C35.9278 12.058 35.9278 12.4317 35.9278 12.8054C35.9278 13.5528 35.399 13.6331 34.8459 13.6275C34.1583 13.6275 34.2574 13.1118 34.3321 12.6933C34.4209 12.1431 34.4209 11.5823 34.3321 11.0322C34.2331 10.3465 34.5077 9.9821 35.2439 9.96528C35.9801 9.94846 35.9913 10.4193 35.9652 10.9518C35.9502 11.1985 35.9652 11.447 35.9652 11.6992L35.9278 11.6843Z" fill="white"/>
<path d="M22.4544 10.6987C22.4283 9.95127 22.7964 9.22256 23.4597 8.64333C23.8334 8.30887 24.1921 7.89593 24.663 8.56485C24.8498 8.83018 25.1731 8.68256 25.4496 8.6508C26.5707 8.51814 27.4844 8.93668 27.8207 9.71584C28.0219 10.1921 28.0576 10.7221 27.9222 11.221C27.7867 11.7199 27.4878 12.1591 27.0733 12.4681C26.1391 13.2155 25.0348 13.3912 23.8969 13.152C22.8562 12.9259 22.4451 12.1935 22.4544 10.6987Z" fill="white"/>
</svg>
